<?xml version="1.0" encoding="UTF-8" standalone="no"?>
<!DOCTYPE svg PUBLIC "-//W3C//DTD SVG 1.1//EN" "http://www.w3.org/Graphics/SVG/1.1/DTD/svg11.dtd">
<svg width="100%" height="100%" viewBox="0 0 961 741" version="1.1" xmlns="http://www.w3.org/2000/svg" xmlns:xlink="http://www.w3.org/1999/xlink" xml:space="preserve" xmlns:serif="http://www.serif.com/" style="fill-rule:evenodd;clip-rule:evenodd;stroke-linejoin:round;stroke-miterlimit:2;">
    <g>
        <path d="M325.492,376.421C303.914,339.592 291.244,294.694 291.244,246.244C291.244,121.115 375.753,19.677 480,19.677C530.061,19.677 578.072,43.548 613.471,86.037C648.869,128.527 668.756,186.155 668.756,246.244C668.756,295.683 655.564,341.423 633.166,378.682C620.099,381.593 610.331,393.254 610.331,407.197C610.331,408.136 610.375,409.064 610.462,409.983C576.571,448.901 530.612,472.811 480,472.811C429.284,472.811 383.239,448.803 349.319,409.732C349.55,408.254 349.669,406.739 349.669,405.197C349.669,397.449 346.592,390.019 341.113,384.54C336.836,380.263 331.369,377.45 325.492,376.421Z"/>
        <path d="M263.827,405.197C263.827,338.81 360.611,284.992 480,284.992C599.389,284.992 696.173,338.81 696.173,405.197C696.173,471.584 599.389,525.402 480,525.402C360.611,525.402 263.827,471.584 263.827,405.197ZM610.331,407.197C610.331,391.063 623.41,377.984 639.543,377.984C647.291,377.984 654.721,381.062 660.2,386.54C665.678,392.019 668.756,399.449 668.756,407.197C668.756,423.331 655.677,436.409 639.543,436.409C623.41,436.409 610.331,423.331 610.331,407.197ZM291.244,405.197C291.244,389.063 304.323,375.984 320.457,375.984C328.204,375.984 335.635,379.062 341.113,384.54C346.592,390.019 349.669,397.449 349.669,405.197C349.669,421.331 336.59,434.409 320.457,434.409C304.323,434.409 291.244,421.331 291.244,405.197Z"/>
        <path d="M406.173,458.162C418.783,535.524 361.907,609.627 278.202,624.894C194.496,640.161 114.71,590.984 98.681,514.245L155.452,502.782C165.249,548.583 215.172,577.52 267.824,567.917C320.476,558.314 356.546,513.693 349.013,467.479L406.173,458.162Z"/>
        <path d="M98.115,514.232C93.445,491.245 102.604,469.98 118.572,466.736C126.24,465.178 134.486,468.069 141.494,474.773C148.502,481.477 153.699,491.445 155.942,502.484C160.613,525.471 151.454,546.736 135.486,549.98C119.517,553.224 102.786,537.219 98.115,514.232L98.115,514.232Z"/>
        <path d="M553.827,458.162C541.217,535.524 598.093,609.627 681.799,624.894C765.504,640.161 845.29,590.984 861.319,514.245L804.548,502.782C794.751,548.583 744.828,577.52 692.176,567.917C639.524,558.314 603.455,513.693 610.987,467.479L553.827,458.162Z"/>
        <path d="M861.885,514.232C866.555,491.245 857.396,469.98 841.428,466.736C833.76,465.178 825.514,468.069 818.506,474.773C811.498,481.477 806.301,491.445 804.058,502.484C799.387,525.471 808.546,546.736 824.515,549.98C840.483,553.224 857.214,537.219 861.885,514.232Z"/>
        <path d="M459.396,407.563C497.529,459.503 495.117,530.868 453.1,593.772C411.084,656.677 336.134,701.134 257.539,709.773C178.943,718.412 109.177,689.86 75.503,635.276L127.42,606.212C150.475,641.967 200.267,658.874 257.263,650.3C314.259,641.726 369.368,609.039 400.971,565.061C432.575,521.083 435.632,472.829 408.944,439.228L459.396,407.563Z"/>
        <path d="M74.816,635.122C63.228,614.276 65.763,590.931 80.48,582.979C87.547,579.16 96.536,579.475 105.468,583.853C114.4,588.231 122.545,596.315 128.11,606.325C139.699,627.171 137.163,650.516 122.446,658.468C107.73,666.421 86.405,655.968 74.816,635.122L74.816,635.122Z"/>
        <path d="M500.629,407.562C462.498,459.5 464.912,530.863 506.928,593.766C548.944,656.67 623.892,701.127 702.486,709.767C781.08,718.407 850.844,689.857 884.516,635.275L832.601,606.211C809.547,641.966 759.756,658.871 702.761,650.296C645.766,641.721 590.657,609.033 559.054,565.056C527.45,521.078 524.392,472.825 551.079,439.226L500.629,407.562Z"/>
        <path d="M885.221,635.119C896.806,614.271 894.268,590.926 879.552,582.977C872.485,579.16 863.498,579.475 854.567,583.855C845.636,588.235 837.493,596.32 831.93,606.331C820.345,627.179 822.883,650.524 837.599,658.473C852.315,666.423 873.636,655.966 885.221,635.119L885.221,635.119Z"/>
    </g>
</svg>
