<?xml version="1.0" standalone="no"?>
<!DOCTYPE svg PUBLIC "-//W3C//DTD SVG 20010904//EN"
 "http://www.w3.org/TR/2001/REC-SVG-20010904/DTD/svg10.dtd">
<svg version="1.0" xmlns="http://www.w3.org/2000/svg"
 width="961.000000pt" height="961.000000pt" viewBox="0 0 961.000000 961.000000"
 preserveAspectRatio="xMidYMid meet">
<metadata>
Created by potrace 1.14, written by Peter Selinger 2001-2017
</metadata>
<g transform="translate(0.000000,961.000000) scale(0.100000,-0.100000)"
fill="#000000" stroke="none">
<path d="M4747 8314 c-1 -1 -38 -5 -82 -9 -105 -9 -140 -13 -140 -15 0 -1 -9
-3 -20 -5 -117 -17 -295 -78 -430 -147 -106 -54 -119 -61 -155 -85 -19 -13
-43 -29 -54 -36 -40 -26 -152 -113 -176 -137 -15 -14 -37 -34 -51 -46 -82 -71
-234 -252 -313 -374 -27 -41 -57 -86 -66 -100 -16 -24 -153 -292 -151 -297 1
-4 -10 -36 -24 -68 -15 -35 -81 -240 -89 -276 -5 -21 -15 -65 -31 -139 -7 -35
-13 -69 -20 -115 -4 -22 -8 -52 -11 -68 -24 -146 -23 -584 2 -709 2 -13 7 -43
10 -68 3 -25 12 -71 19 -102 7 -32 11 -58 9 -58 -3 0 0 -8 5 -17 5 -10 11 -31
14 -48 3 -16 15 -61 27 -100 12 -38 23 -78 25 -88 2 -9 6 -21 9 -26 3 -5 -16
-26 -42 -47 -189 -154 -308 -331 -359 -534 -14 -53 -17 -160 -8 -225 15 -111
54 -215 118 -320 50 -83 215 -254 298 -310 24 -16 46 -33 49 -36 12 -15 123
-80 245 -144 81 -42 87 -45 105 -45 32 0 -44 -178 -124 -289 -41 -57 -159
-173 -210 -208 -23 -15 -45 -32 -51 -37 -19 -20 -180 -94 -260 -120 -79 -25
-100 -30 -180 -42 -63 -10 -245 -11 -305 -2 -63 10 -180 38 -195 46 -5 4 -14
7 -20 8 -5 1 -23 7 -40 14 -16 6 -31 10 -31 8 -1 -2 -11 6 -23 16 -12 11 -21
16 -21 13 0 -4 -26 10 -57 30 -157 99 -273 226 -332 363 -13 30 -28 65 -33 76
-6 12 -11 35 -13 50 -12 145 -125 325 -236 377 -45 21 -113 27 -159 14 -82
-22 -155 -109 -184 -218 -14 -53 -15 -214 -2 -268 14 -58 71 -212 106 -286 39
-82 136 -237 151 -243 5 -2 9 -8 9 -13 0 -17 159 -178 230 -232 30 -23 57 -45
58 -49 2 -5 10 -8 18 -8 8 0 14 -3 14 -7 0 -17 240 -146 315 -169 6 -2 36 -13
67 -24 32 -11 65 -22 75 -24 10 -1 25 -6 33 -9 25 -10 165 -37 232 -44 121
-12 377 -6 458 12 14 3 39 8 55 10 17 3 38 8 47 11 15 5 35 9 83 19 44 10 174
59 255 96 75 35 216 114 230 129 3 3 36 28 73 55 176 129 392 394 448 548 7
20 16 37 19 37 4 0 20 40 36 89 l29 88 30 -7 c16 -4 63 -13 102 -20 67 -11 72
-13 63 -31 -6 -10 -8 -19 -5 -19 3 0 -1 -13 -10 -30 -8 -16 -15 -31 -14 -32 4
-12 -82 -190 -121 -248 -41 -63 -85 -127 -94 -136 -6 -6 -24 -29 -41 -50 -36
-47 -221 -231 -260 -259 -16 -11 -36 -27 -44 -36 -19 -20 -189 -137 -251 -173
-48 -28 -211 -109 -295 -146 -91 -40 -316 -108 -410 -125 -16 -2 -41 -7 -55
-10 -154 -32 -436 -37 -595 -10 -131 23 -266 65 -365 114 -79 39 -122 63 -130
71 -3 3 -23 18 -45 35 -46 34 -154 141 -172 170 -90 145 -118 179 -196 238
-83 63 -209 88 -290 58 -89 -34 -156 -156 -152 -276 4 -85 40 -206 83 -274 67
-107 248 -298 357 -377 22 -16 46 -35 53 -41 7 -7 17 -13 22 -13 5 0 15 -6 22
-12 25 -24 225 -128 283 -148 11 -4 31 -12 45 -19 41 -18 178 -60 252 -77 187
-42 322 -56 528 -54 133 1 199 4 268 14 23 3 61 9 85 12 76 11 92 13 117 19
14 3 38 8 54 10 15 2 36 7 46 10 10 3 29 8 42 11 162 36 403 128 608 232 80
41 152 79 160 86 8 7 43 30 78 50 69 42 243 171 312 231 82 74 216 209 275
280 32 39 61 72 65 75 3 3 17 21 30 40 14 19 28 40 32 45 94 119 243 413 289
573 7 23 15 42 19 42 7 0 18 -30 26 -68 10 -52 100 -245 179 -387 50 -90 159
-240 250 -345 49 -57 206 -212 264 -260 29 -25 59 -49 65 -55 29 -26 133 -103
153 -113 12 -7 28 -18 35 -24 30 -28 274 -167 368 -211 81 -38 147 -66 155
-66 3 0 18 -7 34 -15 32 -17 316 -108 346 -112 5 0 12 -2 15 -3 3 -1 16 -4 30
-7 14 -2 43 -8 65 -14 222 -55 664 -68 875 -25 14 3 41 8 60 11 19 3 43 7 52
10 9 3 25 7 37 9 110 21 311 94 434 157 80 41 248 150 289 187 123 112 233
230 292 315 45 65 91 182 95 241 10 140 -8 213 -68 278 -55 60 -89 72 -188 70
-114 -3 -263 -113 -341 -252 -32 -58 -125 -162 -192 -216 -73 -59 -249 -155
-283 -155 -7 0 -17 -4 -23 -9 -11 -12 -131 -45 -204 -57 -19 -3 -38 -8 -41
-10 -12 -7 -197 -18 -289 -16 -91 1 -203 9 -245 16 -11 2 -36 7 -55 11 -19 3
-44 8 -55 10 -11 2 -20 4 -20 5 0 1 -13 3 -30 5 -25 3 -58 11 -85 20 -3 1 -18
5 -35 9 -16 4 -49 14 -73 23 -23 8 -48 16 -55 17 -26 6 -193 75 -235 98 -18
10 -39 18 -47 18 -8 0 -15 4 -15 8 0 5 -16 15 -35 22 -20 8 -41 20 -47 27 -5
7 -14 10 -19 7 -5 -3 -9 0 -9 5 0 6 -7 11 -15 11 -8 0 -15 5 -15 10 0 6 -5 10
-10 10 -10 0 -158 96 -170 109 -3 3 -23 19 -45 36 -95 71 -289 262 -345 341
-124 175 -184 284 -233 420 l-26 72 32 7 c18 3 51 9 73 11 23 3 54 9 70 13 27
7 29 5 47 -48 23 -73 82 -206 97 -221 3 -3 14 -23 25 -45 21 -43 110 -167 160
-224 74 -84 163 -165 280 -254 43 -33 176 -111 193 -113 8 -2 22 -10 31 -18
10 -9 23 -16 30 -16 7 0 25 -6 39 -14 52 -26 173 -71 217 -79 11 -2 27 -7 35
-10 19 -7 67 -18 105 -24 17 -2 41 -6 55 -9 93 -18 309 -23 435 -11 259 25
501 112 724 261 111 74 269 218 329 300 20 28 45 60 54 70 10 11 18 25 18 32
0 7 4 14 8 16 26 10 154 293 178 393 27 111 30 259 6 315 -13 30 -25 63 -26
70 -4 22 -69 93 -106 115 -61 37 -145 39 -215 4 -99 -49 -191 -183 -221 -320
-3 -13 -7 -33 -9 -44 -3 -11 -7 -29 -9 -40 -25 -124 -155 -304 -291 -405 -59
-43 -175 -112 -175 -103 0 3 -6 1 -12 -4 -14 -10 -92 -41 -124 -48 -11 -2 -37
-9 -59 -14 -79 -19 -112 -23 -219 -25 -122 -3 -202 7 -311 36 -22 6 -45 11
-52 12 -7 1 -16 5 -19 9 -4 4 -14 7 -21 7 -24 0 -191 87 -256 133 -58 41 -161
137 -198 184 -22 27 -99 143 -99 149 0 2 -8 23 -19 47 -30 69 -41 97 -41 107
0 5 53 35 118 68 199 100 313 181 450 317 45 46 82 86 82 90 0 3 5 11 10 18
44 52 60 73 60 79 0 4 13 30 30 58 16 27 27 50 24 50 -4 0 -2 6 4 13 6 6 10
14 10 17 -1 3 6 28 15 55 37 112 36 257 -2 395 -24 85 -106 237 -145 269 -9 7
-16 17 -16 22 0 10 -113 124 -182 184 l-46 41 19 57 c10 31 21 64 23 74 1 10
6 25 9 33 3 8 9 29 13 45 4 17 8 32 9 35 5 19 16 71 20 100 3 19 8 42 10 50 7
26 23 136 32 225 8 87 9 406 1 471 -4 38 -10 89 -12 114 -4 37 -12 97 -20 155
-1 6 -5 16 -9 23 -5 6 -6 12 -3 12 3 0 -9 61 -28 135 -2 6 -6 24 -10 40 -4 17
-10 37 -13 45 -3 8 -8 24 -10 35 -15 82 -166 424 -238 540 -14 22 -28 47 -32
55 -4 8 -11 20 -15 25 -31 40 -78 106 -78 111 0 3 -6 11 -12 18 -7 7 -24 28
-38 46 -32 44 -277 289 -314 315 -16 11 -53 38 -82 60 -138 104 -420 237 -572
270 -145 32 -151 33 -240 40 -80 7 -201 12 -205 9z m-1416 -3594 c89 -46 154
-141 162 -240 5 -57 -15 -144 -39 -171 -8 -8 -14 -18 -14 -22 0 -8 -41 -48
-77 -74 -65 -46 -184 -59 -263 -27 -47 19 -49 20 -90 57 -41 36 -67 79 -84
137 -46 159 55 326 219 364 42 9 146 -4 186 -24z m3196 -23 c174 -89 212 -322
75 -463 -18 -18 -47 -41 -65 -51 -41 -21 -116 -41 -142 -37 -125 17 -165 37
-230 115 -49 59 -70 158 -51 249 9 42 55 117 93 150 82 71 220 87 320 37z"/>
</g>
</svg>
